<?xml version="1.0" encoding="UTF-8"?>
<svg width="16px" height="29px" viewBox="0 0 16 29" version="1.1" xmlns="http://www.w3.org/2000/svg" xmlns:xlink="http://www.w3.org/1999/xlink">
    <title>icon / iphone</title>
    <g id="Keyboard" stroke="none" stroke-width="1" fill="none" fill-rule="evenodd">
        <g id="Browser---Connect" transform="translate(-32.000000, -459.000000)" fill="#FFFFFF">
            <g id="Group-10" transform="translate(24.000000, 426.000000)">
                <g id="icon-/-iphone" transform="translate(0.000000, 31.500000)">
                    <path d="M22.4,2.28571429 C23.2836556,2.28571429 24,3.00807839 24,3.89915966 L24,28.1008403 C24,28.9919216 23.2836556,29.7142857 22.4,29.7142857 L9.6,29.7142857 C8.7163444,29.7142857 8,28.9919216 8,28.1008403 L8,3.89915966 C8,3.00807839 8.7163444,2.28571429 9.6,2.28571429 L22.4,2.28571429 Z M16,26.2857143 C15.3688174,26.2857143 14.8571429,26.7973889 14.8571429,27.4285714 C14.8571429,28.059754 15.3688174,28.5714286 16,28.5714286 C16.6311826,28.5714286 17.1428571,28.059754 17.1428571,27.4285714 C17.1428571,26.7973889 16.6311826,26.2857143 16,26.2857143 Z M22.8571429,5.71428571 L9.14285714,5.71428571 L9.14285714,25.1428571 L22.8571429,25.1428571 L22.8571429,5.71428571 Z M17.7142857,3.42857143 L14.2857143,3.42857143 C13.970123,3.42857143 13.7142857,3.68440871 13.7142857,4 C13.7142857,4.28052559 13.9164288,4.51383814 14.1829993,4.56222209 L14.2857143,4.57142857 L17.7142857,4.57142857 C18.029877,4.57142857 18.2857143,4.31559129 18.2857143,4 C18.2857143,3.68440871 18.029877,3.42857143 17.7142857,3.42857143 Z" id="Shape"></path>
                </g>
            </g>
        </g>
    </g>
</svg>