<?xml version="1.0" encoding="UTF-8"?>
<svg width="19px" height="20px" viewBox="0 0 19 20" version="1.1" xmlns="http://www.w3.org/2000/svg" xmlns:xlink="http://www.w3.org/1999/xlink">
    <title>icon / payment</title>
    <g id="Keyboard" stroke="none" stroke-width="1" fill="none" fill-rule="evenodd">
        <g id="Browser---Connect" transform="translate(-32.000000, -1118.000000)" fill="#FFFFFF">
            <g id="Group-10" transform="translate(24.000000, 426.000000)">
                <g id="icon-/-payment" transform="translate(0.000000, 685.500000)">
                    <path d="M19.4285714,9.14285714 L16,9.14285714 C14.1064523,9.14285714 12.5714286,10.6778809 12.5714286,12.5714286 L12.5714286,17.1428571 C12.5714286,19.0364049 14.1064523,20.5714286 16,20.5714286 L19.4285714,20.5714286 L19.4285714,25.1428571 C19.4285714,25.7740397 18.9168969,26.2857143 18.2857143,26.2857143 L9.14285714,26.2857143 C8.51167457,26.2857143 8,25.7740397 8,25.1428571 L8,8 C8,7.36881743 8.51167457,6.85714286 9.14285714,6.85714286 L18.2857143,6.85714286 C18.9168969,6.85714286 19.4285714,7.36881743 19.4285714,8 L19.4285714,9.14285714 L19.4285714,9.14285714 Z M13.7142857,25.1428571 C14.3454683,25.1428571 14.8571429,24.6311826 14.8571429,24 C14.8571429,23.3688174 14.3454683,22.8571429 13.7142857,22.8571429 C13.0831031,22.8571429 12.5714286,23.3688174 12.5714286,24 C12.5714286,24.6311826 13.0831031,25.1428571 13.7142857,25.1428571 Z M26.2857143,12.5714286 L14.8571429,12.5714286 C14.8571429,11.940246 15.3688174,11.4285714 16,11.4285714 L25.1428571,11.4285714 C25.7740397,11.4285714 26.2857143,11.940246 26.2857143,12.5714286 L26.2857143,12.5714286 Z M26.2857143,14.8571429 L26.2857143,17.1428571 C26.2857143,17.7740397 25.7740397,18.2857143 25.1428571,18.2857143 L16,18.2857143 C15.3688174,18.2857143 14.8571429,17.7740397 14.8571429,17.1428571 L14.8571429,14.8571429 L26.2857143,14.8571429 L26.2857143,14.8571429 Z" id="Shape"></path>
                </g>
            </g>
        </g>
    </g>
</svg>