<?xml version="1.0" encoding="UTF-8"?>
<svg width="21px" height="27px" viewBox="0 0 21 27" version="1.1" xmlns="http://www.w3.org/2000/svg" xmlns:xlink="http://www.w3.org/1999/xlink">
    <title>icon / peripheral</title>
    <g id="Keyboard" stroke="none" stroke-width="1" fill="none" fill-rule="evenodd">
        <g id="Browser---Connect" transform="translate(-29.000000, -1583.000000)" fill="#FFFFFF">
            <g id="Group-10" transform="translate(24.000000, 426.000000)">
                <g id="icon-/-peripheral" transform="translate(0.000000, 1154.500000)">
                    <path d="M21.3194805,3.42857143 C22.6966061,3.42857143 23.812987,4.54495231 23.812987,5.92207792 L23.812987,26.8675325 C23.812987,28.2446581 22.6966061,29.361039 21.3194805,29.361039 L10.3480519,29.361039 C8.97092634,29.361039 7.85454545,28.2446581 7.85454545,26.8675325 L7.85454545,5.92207792 C7.85454545,4.54495231 8.97092634,3.42857143 10.3480519,3.42857143 L21.3194805,3.42857143 Z M20.8207792,4.42597403 L10.8467532,4.42597403 C9.74505276,4.42597403 8.85194805,5.31907873 8.85194805,6.42077922 L8.85194805,24.8727273 C8.85194805,25.6990026 9.52177658,26.3688312 10.3480519,26.3688312 L13.838961,26.3688312 C14.1143862,26.3688312 14.3376623,26.5921073 14.3376623,26.8675325 L14.3376623,27.3662338 C14.3376623,27.917084 14.7842147,28.3636364 15.3350649,28.3636364 L16.3324675,28.3636364 C16.8833178,28.3636364 17.3298701,27.917084 17.3298701,27.3662338 L17.3298701,26.8675325 C17.3298701,26.5921073 17.5531463,26.3688312 17.8285714,26.3688312 L21.3194805,26.3688312 C22.1457559,26.3688312 22.8155844,25.6990026 22.8155844,24.8727273 L22.8155844,6.42077922 C22.8155844,5.31907873 21.9224797,4.42597403 20.8207792,4.42597403 Z M6.68567946,7.91688312 L6.68567946,13.4025974 L6.28571429,13.4025974 C5.970123,13.4025974 5.71428571,13.1793212 5.71428571,12.9038961 L5.71428571,8.41558442 C5.71428571,8.14015929 5.970123,7.91688312 6.28571429,7.91688312 L6.68567946,7.91688312 Z M25.2337488,7.91688312 C25.5493401,7.91688312 25.8051774,8.14015929 25.8051774,8.41558442 L25.8051774,8.41558442 L25.8051774,12.9038961 C25.8051774,13.1793212 25.5493401,13.4025974 25.2337488,13.4025974 L25.2337488,13.4025974 L24.8337836,13.4025974 L24.8337836,7.91688312 Z" id="Combined-Shape"></path>
                </g>
            </g>
        </g>
    </g>
</svg>