<?xml version="1.0" encoding="UTF-8"?>
<svg width="24px" height="23px" viewBox="0 0 24 23" version="1.1" xmlns="http://www.w3.org/2000/svg" xmlns:xlink="http://www.w3.org/1999/xlink">
    <title>icon / print</title>
    <g id="Keyboard" stroke="none" stroke-width="1" fill="none" fill-rule="evenodd">
        <g id="Browser---Connect" transform="translate(-28.000000, -1344.000000)" fill="#FFFFFF">
            <g id="Group-10" transform="translate(24.000000, 426.000000)">
                <g id="icon-/-print" transform="translate(0.000000, 913.500000)">
                    <path d="M22.2857143,8.07654054 L22.8571429,8.07722008 C23.4883254,8.07722008 24,8.58889465 24,9.22007722 L24,12.7722008 L25.1428571,12.7722008 C26.4052223,12.7722008 27.4285714,13.7955499 27.4285714,15.0579151 L27.4285714,24.5714286 C27.4285714,25.8337937 26.4052223,26.8571429 25.1428571,26.8571429 L22.8571429,26.8571429 L22.8571429,22.7490347 C22.8571429,21.8306925 22.1725412,21.0765692 21.2988921,20.9956121 L21.1428571,20.988417 L10.2857143,20.988417 C9.39153898,20.988417 8.65726094,21.6915214 8.5784343,22.5887826 L8.57142857,22.7490347 L8.57142857,26.8571429 L6.85714286,26.8571429 C5.59477771,26.8571429 4.57142857,25.8337937 4.57142857,24.5714286 L4.57142857,15.0579151 C4.57142857,13.7955499 5.59477771,12.7722008 6.85714286,12.7722008 L8,12.7722008 L8,9.22007722 C8,8.58889465 8.51167457,8.07722008 9.14285714,8.07722008 L9.71428571,8.07654054 L9.71428571,13.9459459 L22.2857143,13.9459459 L22.2857143,8.07654054 Z M21.7142857,25.1151946 L21.7142857,26.8571429 L9.71428571,26.8571429 L9.71428571,25.1151946 L21.7142857,25.1151946 Z M7.42857143,15.7065637 C7.11298014,15.7065637 6.85714286,15.9693155 6.85714286,16.2934363 C6.85714286,16.6175571 7.11298014,16.8803089 7.42857143,16.8803089 C7.74416271,16.8803089 8,16.6175571 8,16.2934363 C8,15.9693155 7.74416271,15.7065637 7.42857143,15.7065637 Z M9.71428571,15.7065637 C9.39869443,15.7065637 9.14285714,15.9693155 9.14285714,16.2934363 C9.14285714,16.6175571 9.39869443,16.8803089 9.71428571,16.8803089 C10.029877,16.8803089 10.2857143,16.6175571 10.2857143,16.2934363 C10.2857143,15.9693155 10.029877,15.7065637 9.71428571,15.7065637 Z M12,15.7065637 C11.6844087,15.7065637 11.4285714,15.9693155 11.4285714,16.2934363 C11.4285714,16.6175571 11.6844087,16.8803089 12,16.8803089 C12.3155913,16.8803089 12.5714286,16.6175571 12.5714286,16.2934363 C12.5714286,15.9693155 12.3155913,15.7065637 12,15.7065637 Z M20,5.14285714 C20.5891037,5.14285714 21.0741027,5.60062918 21.136151,6.18870985 L21.1428571,6.31660232 L21.1428571,12.7722008 L10.8571429,12.7722008 L10.8571429,6.31660232 C10.8571429,5.71157686 11.3028683,5.21346979 11.8754731,5.14974452 L12,5.14285714 L20,5.14285714 Z" id="Shape"></path>
                </g>
            </g>
        </g>
    </g>
</svg>