<?xml version="1.0" encoding="UTF-8"?>
<svg width="22px" height="22px" viewBox="0 0 22 22" version="1.1" xmlns="http://www.w3.org/2000/svg" xmlns:xlink="http://www.w3.org/1999/xlink">
    <title>icon / qr-code</title>
    <g id="Keyboard" stroke="none" stroke-width="1" fill="none" fill-rule="evenodd">
        <g id="Browser---Connect" transform="translate(-29.000000, -891.000000)" fill="#FFFFFF">
            <g id="Group-10" transform="translate(24.000000, 426.000000)">
                <g id="Group-7" transform="translate(0.000000, 459.500000)">
                    <g id="icon-/-qr-code" transform="translate(0.000000, 0.500000)">
                        <path d="M10.3896104,20.6753247 C10.9060325,20.6753247 11.3246753,21.0939675 11.3246753,21.6103896 L11.3246753,25.3506494 C11.3246753,25.8670715 10.9060325,26.2857143 10.3896104,26.2857143 L6.64935065,26.2857143 C6.13292855,26.2857143 5.71428571,25.8670715 5.71428571,25.3506494 L5.71428571,21.6103896 C5.71428571,21.0939675 6.13292855,20.6753247 6.64935065,20.6753247 L10.3896104,20.6753247 Z M25.8181818,15.0649351 C26.0763929,15.0649351 26.2857143,15.2742565 26.2857143,15.5324675 L26.2857143,18.3376623 C26.2857143,18.5958734 26.0763929,18.8051948 25.8181818,18.8051948 L24.8831169,18.8051948 C24.6249058,18.8051948 24.4155844,18.5958734 24.4155844,18.3376623 L24.4155844,16.9350649 L22.5454545,16.9350649 L22.5454545,18.3376623 C22.5454545,18.5958734 22.3361331,18.8051948 22.0779221,18.8051948 L20.6753247,18.8051948 L20.6753247,20.6753247 L23.9480519,20.6753247 C24.206263,20.6753247 24.4155844,20.8846461 24.4155844,21.1428571 L24.4155844,22.5454545 L25.8181818,22.5454545 C26.0763929,22.5454545 26.2857143,22.754776 26.2857143,23.012987 L26.2857143,23.9480519 C26.2857143,24.206263 26.0763929,24.4155844 25.8181818,24.4155844 L24.4155844,24.4155844 L24.4155844,25.8181818 C24.4155844,26.0763929 24.206263,26.2857143 23.9480519,26.2857143 L23.012987,26.2857143 C22.754776,26.2857143 22.5454545,26.0763929 22.5454545,25.8181818 L22.5454545,22.5454545 L19.2727273,22.5454545 C19.0145162,22.5454545 18.8051948,22.3361331 18.8051948,22.0779221 L18.8051948,20.6753247 L13.6623377,20.6753247 C13.4041266,20.6753247 13.1948052,20.4660033 13.1948052,20.2077922 L13.1948052,17.4025974 C13.1948052,17.1443864 13.4041266,16.9350649 13.6623377,16.9350649 L14.5974026,16.9350649 C14.8556136,16.9350649 15.0649351,17.1443864 15.0649351,17.4025974 L15.0649351,18.8051948 L18.8051948,18.8051948 L18.8051948,15.5324675 C18.8051948,15.2742565 19.0145162,15.0649351 19.2727273,15.0649351 L25.8181818,15.0649351 Z M13.6623377,26.2857143 C13.4041266,26.2857143 13.1948052,26.0763929 13.1948052,25.8181818 L13.1948052,23.012987 C13.1948052,22.754776 13.4041266,22.5454545 13.6623377,22.5454545 L14.5974026,22.5454545 C14.8556136,22.5454545 15.0649351,22.754776 15.0649351,23.012987 L15.0649351,24.4155844 L18.3376623,24.4155844 C18.5958734,24.4155844 18.8051948,24.6249058 18.8051948,24.8831169 L18.8051948,25.8181818 C18.8051948,26.0763929 18.5958734,26.2857143 18.3376623,26.2857143 L13.6623377,26.2857143 Z M10.8571429,15.0649351 C11.1153539,15.0649351 11.3246753,15.2742565 11.3246753,15.5324675 L11.3246753,18.3376623 C11.3246753,18.5958734 11.1153539,18.8051948 10.8571429,18.8051948 L8.05194805,18.8051948 C7.793737,18.8051948 7.58441558,18.5958734 7.58441558,18.3376623 L7.584,16.9348571 L6.18181818,16.9350649 C5.92360713,16.9350649 5.71428571,16.7257435 5.71428571,16.4675325 L5.71428571,15.5324675 C5.71428571,15.2742565 5.92360713,15.0649351 6.18181818,15.0649351 L10.8571429,15.0649351 Z M18.3376623,11.3246753 C18.5958734,11.3246753 18.8051948,11.5339967 18.8051948,11.7922078 L18.8051948,12.7272727 C18.8051948,12.9854838 18.5958734,13.1948052 18.3376623,13.1948052 L16.9350649,13.1948052 L16.9350649,14.5974026 C16.9350649,14.8556136 16.7257435,15.0649351 16.4675325,15.0649351 L15.5324675,15.0649351 C15.2742565,15.0649351 15.0649351,14.8556136 15.0649351,14.5974026 L15.0649351,11.7922078 C15.0649351,11.5339967 15.2742565,11.3246753 15.5324675,11.3246753 L18.3376623,11.3246753 Z M12.2597403,5.71428571 C12.7761624,5.71428571 13.1948052,6.13292855 13.1948052,6.64935065 L13.1948052,12.2597403 C13.1948052,12.7761624 12.7761624,13.1948052 12.2597403,13.1948052 L6.64935065,13.1948052 C6.13292855,13.1948052 5.71428571,12.7761624 5.71428571,12.2597403 L5.71428571,6.64935065 C5.71428571,6.13292855 6.13292855,5.71428571 6.64935065,5.71428571 L12.2597403,5.71428571 Z M25.3506494,5.71428571 C25.8670715,5.71428571 26.2857143,6.13292855 26.2857143,6.64935065 L26.2857143,10.3896104 C26.2857143,10.9060325 25.8670715,11.3246753 25.3506494,11.3246753 L21.6103896,11.3246753 C21.0939675,11.3246753 20.6753247,10.9060325 20.6753247,10.3896104 L20.6753247,6.64935065 C20.6753247,6.13292855 21.0939675,5.71428571 21.6103896,5.71428571 L25.3506494,5.71428571 Z M10.2337662,8.20779221 L8.67532468,8.20779221 C8.44939,8.20779221 8.26088646,8.36805392 8.21729081,8.58110058 L8.20779221,8.67532468 L8.20779221,10.2337662 C8.20779221,10.4597009 8.36805392,10.6482044 8.58110058,10.6918001 L8.67532468,10.7012987 L10.2337662,10.7012987 C10.4597009,10.7012987 10.6482044,10.541037 10.6918001,10.3279903 L10.7012987,10.2337662 L10.7012987,8.67532468 C10.7012987,8.44939 10.541037,8.26088646 10.3279903,8.21729081 L10.2337662,8.20779221 Z M18.3376623,5.71428571 C18.563597,5.71428571 18.7521006,5.87454742 18.7956962,6.08759408 L18.8051948,6.18181818 L18.8051948,8.98701299 C18.8051948,9.21294766 18.6449331,9.4014512 18.4318864,9.44504686 L18.3376623,9.45454545 L17.4025974,9.45454545 C17.1766627,9.45454545 16.9881592,9.29428375 16.9445635,9.08123709 L16.9350649,8.98701299 L16.9350649,7.58441558 L15.5324675,7.58441558 C15.3065329,7.58441558 15.1180293,7.42415388 15.0744337,7.21110722 L15.0649351,7.11688312 L15.0649351,6.18181818 C15.0649351,5.95588351 15.2251968,5.76737997 15.4382434,5.72378431 L15.5324675,5.71428571 L18.3376623,5.71428571 Z" id="Shape"></path>
                    </g>
                </g>
            </g>
        </g>
    </g>
</svg>