<?xml version="1.0" encoding="utf-8"?>
<!-- Generator: Adobe Illustrator 24.0.1, SVG Export Plug-In . SVG Version: 6.00 Build 0)  -->
<svg version="1.1" id="Layer_1" xmlns="http://www.w3.org/2000/svg" xmlns:xlink="http://www.w3.org/1999/xlink" x="0px" y="0px"
	 viewBox="0 0 28 28" style="enable-background:new 0 0 28 28;" xml:space="preserve">
<style type="text/css">
	.st0{fill:#FFFFFF;}
</style>
<path id="Shape" class="st0" d="M23.3,18l4.2,3.4l-1.7,2.2c-0.9,1-2.2,1.5-3.5,1.5c-2,0-3.4-0.9-4.9-1.9c0.3-0.2,0.6-0.4,0.9-0.6
	c0.8,0.2,1.6,0.2,2.3-0.1c2.1-0.8,2.6-3.5,2.6-4.3L23.3,18z M11,3c5.8,0,10.5,4.7,10.5,10.5S16.8,24,11,24c-1.3,0-2.5-0.2-3.6-0.6
	c0.1-0.1,0.1-0.2,0.2-0.3c0.3-0.6,0.7-1,1.2-1.2c0.2-0.1,0.4-0.2,0.6-0.2c0.5,0.1,1,0.1,1.5,0.1c4.6,0,8.3-3.7,8.3-8.3
	S15.6,5.2,11,5.2s-8.3,3.7-8.3,8.3c0,1.4,0.3,2.7,0.9,3.8c-0.7,0.3-1.3,0.7-1.8,1.3c-0.8-1.5-1.3-3.3-1.3-5.1C0.5,7.7,5.2,3,11,3z
	 M6.2,18c1.7,0,4,0.5,7.1,2.5l0.3,0.2c-0.3,0.1-0.6,0.2-0.9,0.3c-0.9-0.3-1.8-0.6-2.7-0.6l-0.3,0c-0.6,0-1.1,0.1-1.5,0.4
	c-1,0.5-1.6,1.4-2,2.3c-1.4-0.8-2.7-1.9-3.7-3.3C3.4,18.6,4.7,18,6.2,18z"/>
</svg>
